# MagicaVoxel @ Ephtracy

# group
g ChickenMan

# material
mtllib ChickenMan.mtl
usemtl palette

# normals
vn -1 0 0
vn 1 0 0
vn 0 0 1
vn 0 0 -1
vn 0 -1 0
vn 0 1 0

# texcoords
vt 0.0214844 0.5
vt 0.841797 0.5
vt 0.958984 0.5
vt 0.994141 0.5

# verts
v -15 1 13
v -15 1 -13
v -15 2 14
v -15 2 13
v -15 2 -13
v -15 2 -14
v -15 28 14
v -15 28 13
v -15 28 -13
v -15 28 -14
v -15 29 13
v -15 29 -13
v -14 0 13
v -14 0 -13
v -14 1 14
v -14 1 13
v -14 1 -13
v -14 1 -14
v -14 2 15
v -14 2 14
v -14 2 13
v -14 2 -13
v -14 2 -14
v -14 2 -15
v -14 28 15
v -14 28 14
v -14 28 13
v -14 28 -13
v -14 28 -14
v -14 28 -15
v -14 29 14
v -14 29 13
v -14 29 -13
v -14 29 -14
v -14 30 13
v -14 30 -13
v -13 0 14
v -13 0 13
v -13 0 -13
v -13 0 -14
v -13 1 15
v -13 1 14
v -13 1 13
v -13 1 -13
v -13 1 -14
v -13 1 -15
v -13 2 15
v -13 2 14
v -13 2 -14
v -13 2 -15
v -13 28 15
v -13 28 14
v -13 28 -14
v -13 28 -15
v -13 29 15
v -13 29 14
v -13 29 13
v -13 29 -13
v -13 29 -14
v -13 29 -15
v -13 30 14
v -13 30 13
v -13 30 -13
v -13 30 -14
v -8 17 16
v -8 17 15
v -8 22 16
v -8 22 15
v -3 8 16
v -3 8 15
v -3 10 17
v -3 10 16
v -3 12 17
v -3 12 15
v -3 13 -15
v -3 13 -16
v -3 19 -16
v -3 19 -17
v -3 29 -15
v -3 30 5
v -3 30 -14
v -3 30 -15
v -3 30 -16
v -3 30 -17
v -3 31 -13
v -3 31 -16
v -3 32 -8
v -3 32 -13
v -3 33 -4
v -3 33 -8
v -3 34 6
v -3 34 5
v -3 34 -1
v -3 34 -4
v -3 35 7
v -3 35 6
v -3 35 2
v -3 35 -1
v -3 37 4
v -3 37 2
v -3 38 7
v -3 38 4
v -2 16 -16
v -2 16 -17
v -2 19 -16
v -2 19 -17
v 6 17 16
v 6 17 15
v 6 21 16
v 6 21 15
v 6 22 16
v 6 22 15
v -6 17 16
v -6 17 15
v -6 21 16
v -6 21 15
v -6 22 16
v -6 22 15
v 2 16 -16
v 2 16 -17
v 2 19 -16
v 2 19 -17
v 3 8 16
v 3 8 15
v 3 10 17
v 3 10 16
v 3 12 17
v 3 12 15
v 3 13 -15
v 3 13 -16
v 3 19 -16
v 3 19 -17
v 3 29 -15
v 3 30 5
v 3 30 -14
v 3 30 -15
v 3 30 -16
v 3 30 -17
v 3 31 -13
v 3 31 -16
v 3 32 -8
v 3 32 -13
v 3 33 -4
v 3 33 -8
v 3 34 6
v 3 34 5
v 3 34 -1
v 3 34 -4
v 3 35 7
v 3 35 6
v 3 35 2
v 3 35 -1
v 3 37 4
v 3 37 2
v 3 38 7
v 3 38 4
v 8 17 16
v 8 17 15
v 8 22 16
v 8 22 15
v 13 0 14
v 13 0 13
v 13 0 -13
v 13 0 -14
v 13 1 15
v 13 1 14
v 13 1 13
v 13 1 -13
v 13 1 -14
v 13 1 -15
v 13 2 15
v 13 2 14
v 13 2 -14
v 13 2 -15
v 13 28 15
v 13 28 14
v 13 28 -14
v 13 28 -15
v 13 29 15
v 13 29 14
v 13 29 13
v 13 29 -13
v 13 29 -14
v 13 29 -15
v 13 30 14
v 13 30 13
v 13 30 -13
v 13 30 -14
v 14 0 13
v 14 0 -13
v 14 1 14
v 14 1 13
v 14 1 -13
v 14 1 -14
v 14 2 15
v 14 2 14
v 14 2 13
v 14 2 -13
v 14 2 -14
v 14 2 -15
v 14 28 15
v 14 28 14
v 14 28 13
v 14 28 -13
v 14 28 -14
v 14 28 -15
v 14 29 14
v 14 29 13
v 14 29 -13
v 14 29 -14
v 14 30 13
v 14 30 -13
v 15 1 13
v 15 1 -13
v 15 2 14
v 15 2 13
v 15 2 -13
v 15 2 -14
v 15 28 14
v 15 28 13
v 15 28 -13
v 15 28 -14
v 15 29 13
v 15 29 -13
v -3 10 17
v -3 12 17
v 3 10 17
v 3 12 17
v -8 17 16
v -8 22 16
v -7 21 16
v -7 22 16
v -6 17 16
v -6 21 16
v -6 22 16
v -3 8 16
v -3 10 16
v 3 8 16
v 3 10 16
v 6 17 16
v 6 21 16
v 6 22 16
v 7 21 16
v 7 22 16
v 8 17 16
v 8 22 16
v -14 2 15
v -14 28 15
v -13 1 15
v -13 2 15
v -13 28 15
v -13 29 15
v -8 17 15
v -8 22 15
v -7 22 15
v -6 17 15
v -6 21 15
v -6 22 15
v -3 8 15
v -3 12 15
v 3 8 15
v 3 12 15
v 6 17 15
v 6 21 15
v 6 22 15
v 7 22 15
v 8 17 15
v 8 22 15
v 13 1 15
v 13 2 15
v 13 28 15
v 13 29 15
v 14 2 15
v 14 28 15
v -15 2 14
v -15 28 14
v -14 1 14
v -14 2 14
v -14 28 14
v -14 29 14
v -13 0 14
v -13 1 14
v -13 2 14
v -13 28 14
v -13 29 14
v -13 30 14
v 13 0 14
v 13 1 14
v 13 2 14
v 13 28 14
v 13 29 14
v 13 30 14
v 14 1 14
v 14 2 14
v 14 28 14
v 14 29 14
v 15 2 14
v 15 28 14
v -15 1 13
v -15 2 13
v -15 28 13
v -15 29 13
v -14 0 13
v -14 1 13
v -14 2 13
v -14 28 13
v -14 29 13
v -14 30 13
v -13 0 13
v -13 1 13
v -13 29 13
v -13 30 13
v 13 0 13
v 13 1 13
v 13 29 13
v 13 30 13
v 14 0 13
v 14 1 13
v 14 2 13
v 14 28 13
v 14 29 13
v 14 30 13
v 15 1 13
v 15 2 13
v 15 28 13
v 15 29 13
v -3 35 7
v -3 38 7
v 3 35 7
v 3 38 7
v -3 34 6
v -3 35 6
v 3 34 6
v 3 35 6
v -3 30 5
v -3 34 5
v 3 30 5
v 3 34 5
v -3 29 -15
v -3 30 -15
v 3 29 -15
v 3 30 -15
v -3 37 4
v -3 38 4
v 3 37 4
v 3 38 4
v -3 35 2
v -3 37 2
v 3 35 2
v 3 37 2
v -3 34 -1
v -3 35 -1
v 3 34 -1
v 3 35 -1
v -3 33 -4
v -3 34 -4
v 3 33 -4
v 3 34 -4
v -3 32 -8
v -3 33 -8
v 3 32 -8
v 3 33 -8
v -15 1 -13
v -15 2 -13
v -15 28 -13
v -15 29 -13
v -14 0 -13
v -14 1 -13
v -14 2 -13
v -14 28 -13
v -14 29 -13
v -14 30 -13
v -13 0 -13
v -13 1 -13
v -13 29 -13
v -13 30 -13
v -3 31 -13
v -3 32 -13
v 3 31 -13
v 3 32 -13
v 13 0 -13
v 13 1 -13
v 13 29 -13
v 13 30 -13
v 14 0 -13
v 14 1 -13
v 14 2 -13
v 14 28 -13
v 14 29 -13
v 14 30 -13
v 15 1 -13
v 15 2 -13
v 15 28 -13
v 15 29 -13
v -15 2 -14
v -15 28 -14
v -14 1 -14
v -14 2 -14
v -14 28 -14
v -14 29 -14
v -13 0 -14
v -13 1 -14
v -13 2 -14
v -13 28 -14
v -13 29 -14
v -13 30 -14
v -3 30 -14
v 3 30 -14
v 13 0 -14
v 13 1 -14
v 13 2 -14
v 13 28 -14
v 13 29 -14
v 13 30 -14
v 14 1 -14
v 14 2 -14
v 14 28 -14
v 14 29 -14
v 15 2 -14
v 15 28 -14
v -14 2 -15
v -14 28 -15
v -13 1 -15
v -13 2 -15
v -13 28 -15
v -13 29 -15
v -3 13 -15
v -3 29 -15
v 3 13 -15
v 3 29 -15
v 13 1 -15
v 13 2 -15
v 13 28 -15
v 13 29 -15
v 14 2 -15
v 14 28 -15
v -3 13 -16
v -3 19 -16
v -3 30 -16
v -3 31 -16
v -2 16 -16
v -2 19 -16
v 2 16 -16
v 2 19 -16
v 3 13 -16
v 3 19 -16
v 3 30 -16
v 3 31 -16
v -3 19 -17
v -3 30 -17
v -2 16 -17
v -2 19 -17
v 2 16 -17
v 2 19 -17
v 3 19 -17
v 3 30 -17
v -13 0 14
v 13 0 14
v -14 0 13
v -13 0 13
v 13 0 13
v 14 0 13
v -14 0 -13
v -13 0 -13
v 13 0 -13
v 14 0 -13
v -13 0 -14
v 13 0 -14
v -13 1 15
v 13 1 15
v -14 1 14
v -13 1 14
v 13 1 14
v 14 1 14
v -15 1 13
v -14 1 13
v -13 1 13
v 13 1 13
v 14 1 13
v 15 1 13
v -15 1 -13
v -14 1 -13
v -13 1 -13
v 13 1 -13
v 14 1 -13
v 15 1 -13
v -14 1 -14
v -13 1 -14
v 13 1 -14
v 14 1 -14
v -13 1 -15
v 13 1 -15
v -14 2 15
v -13 2 15
v 13 2 15
v 14 2 15
v -15 2 14
v -14 2 14
v -13 2 14
v 13 2 14
v 14 2 14
v 15 2 14
v -15 2 13
v -14 2 13
v 14 2 13
v 15 2 13
v -15 2 -13
v -14 2 -13
v 14 2 -13
v 15 2 -13
v -15 2 -14
v -14 2 -14
v -13 2 -14
v 13 2 -14
v 14 2 -14
v 15 2 -14
v -14 2 -15
v -13 2 -15
v 13 2 -15
v 14 2 -15
v -3 8 16
v 3 8 16
v -3 8 15
v 3 8 15
v -3 10 17
v 3 10 17
v -3 10 16
v 3 10 16
v -3 13 -15
v 3 13 -15
v -3 13 -16
v 3 13 -16
v -2 16 -16
v 2 16 -16
v -2 16 -17
v 2 16 -17
v -8 17 16
v -6 17 16
v 6 17 16
v 8 17 16
v -8 17 15
v -6 17 15
v 6 17 15
v 8 17 15
v -3 19 -16
v -2 19 -16
v 2 19 -16
v 3 19 -16
v -3 19 -17
v -2 19 -17
v 2 19 -17
v 3 19 -17
v -3 30 -14
v 3 30 -14
v -3 30 -15
v 3 30 -15
v -3 34 6
v 3 34 6
v -3 34 5
v 3 34 5
v -3 35 7
v 3 35 7
v -3 35 6
v 3 35 6
v -3 12 17
v 3 12 17
v -3 12 15
v 3 12 15
v -8 22 16
v -7 22 16
v -6 22 16
v 6 22 16
v 7 22 16
v 8 22 16
v -8 22 15
v -7 22 15
v -6 22 15
v 6 22 15
v 7 22 15
v 8 22 15
v -14 28 15
v -13 28 15
v 13 28 15
v 14 28 15
v -15 28 14
v -14 28 14
v -13 28 14
v 13 28 14
v 14 28 14
v 15 28 14
v -15 28 13
v -14 28 13
v 14 28 13
v 15 28 13
v -15 28 -13
v -14 28 -13
v 14 28 -13
v 15 28 -13
v -15 28 -14
v -14 28 -14
v -13 28 -14
v 13 28 -14
v 14 28 -14
v 15 28 -14
v -14 28 -15
v -13 28 -15
v 13 28 -15
v 14 28 -15
v -13 29 15
v 13 29 15
v -14 29 14
v -13 29 14
v 13 29 14
v 14 29 14
v -15 29 13
v -14 29 13
v -13 29 13
v 13 29 13
v 14 29 13
v 15 29 13
v -15 29 -13
v -14 29 -13
v -13 29 -13
v 13 29 -13
v 14 29 -13
v 15 29 -13
v -14 29 -14
v -13 29 -14
v 13 29 -14
v 14 29 -14
v -13 29 -15
v -3 29 -15
v 3 29 -15
v 13 29 -15
v -13 30 14
v 13 30 14
v -14 30 13
v -13 30 13
v 13 30 13
v 14 30 13
v -3 30 5
v 3 30 5
v -14 30 -13
v -13 30 -13
v 13 30 -13
v 14 30 -13
v -13 30 -14
v -3 30 -14
v 3 30 -14
v 13 30 -14
v -3 30 -16
v 3 30 -16
v -3 30 -17
v 3 30 -17
v -3 31 -13
v 3 31 -13
v -3 31 -16
v 3 31 -16
v -3 32 -8
v 3 32 -8
v -3 32 -13
v 3 32 -13
v -3 33 -4
v 3 33 -4
v -3 33 -8
v 3 33 -8
v -3 34 -1
v 3 34 -1
v -3 34 -4
v 3 34 -4
v -3 35 2
v 3 35 2
v -3 35 -1
v 3 35 -1
v -3 37 4
v 3 37 4
v -3 37 2
v 3 37 2
v -3 38 7
v 3 38 7
v -3 38 4
v 3 38 4

# faces
f 4/3/1 2/3/1 1/3/1
f 5/3/1 2/3/1 4/3/1
f 7/3/1 4/3/1 3/3/1
f 7/3/1 6/3/1 5/3/1
f 7/3/1 5/3/1 4/3/1
f 8/3/1 6/3/1 7/3/1
f 9/3/1 6/3/1 8/3/1
f 10/3/1 6/3/1 9/3/1
f 11/3/1 9/3/1 8/3/1
f 12/3/1 9/3/1 11/3/1
f 16/3/1 14/3/1 13/3/1
f 17/3/1 14/3/1 16/3/1
f 20/3/1 16/3/1 15/3/1
f 21/3/1 16/3/1 20/3/1
f 22/3/1 18/3/1 17/3/1
f 23/3/1 18/3/1 22/3/1
f 25/3/1 20/3/1 19/3/1
f 26/3/1 20/3/1 25/3/1
f 29/3/1 24/3/1 23/3/1
f 30/3/1 24/3/1 29/3/1
f 31/3/1 27/3/1 26/3/1
f 32/3/1 27/3/1 31/3/1
f 33/3/1 29/3/1 28/3/1
f 34/3/1 29/3/1 33/3/1
f 35/3/1 33/3/1 32/3/1
f 36/3/1 33/3/1 35/3/1
f 42/3/1 38/3/1 37/3/1
f 43/3/1 38/3/1 42/3/1
f 44/3/1 40/3/1 39/3/1
f 45/3/1 40/3/1 44/3/1
f 47/3/1 42/3/1 41/3/1
f 48/3/1 42/3/1 47/3/1
f 49/3/1 46/3/1 45/3/1
f 50/3/1 46/3/1 49/3/1
f 55/3/1 52/3/1 51/3/1
f 56/3/1 52/3/1 55/3/1
f 59/3/1 54/3/1 53/3/1
f 60/3/1 54/3/1 59/3/1
f 61/3/1 57/3/1 56/3/1
f 62/3/1 57/3/1 61/3/1
f 63/3/1 59/3/1 58/3/1
f 64/3/1 59/3/1 63/3/1
f 67/4/1 66/4/1 65/4/1
f 68/4/1 66/4/1 67/4/1
f 72/1/1 70/1/1 69/1/1
f 73/1/1 72/1/1 71/1/1
f 74/1/1 70/1/1 72/1/1
f 74/1/1 72/1/1 73/1/1
f 77/2/1 76/2/1 75/2/1
f 79/2/1 77/2/1 75/2/1
f 79/2/1 78/2/1 77/2/1
f 82/2/1 78/2/1 79/2/1
f 83/2/1 78/2/1 82/2/1
f 84/2/1 78/2/1 83/2/1
f 85/2/1 81/2/1 80/2/1
f 85/2/1 82/2/1 81/2/1
f 85/2/1 83/2/1 82/2/1
f 86/2/1 83/2/1 85/2/1
f 87/2/1 85/2/1 80/2/1
f 88/2/1 85/2/1 87/2/1
f 89/2/1 87/2/1 80/2/1
f 90/2/1 87/2/1 89/2/1
f 92/2/1 89/2/1 80/2/1
f 93/2/1 89/2/1 92/2/1
f 94/2/1 89/2/1 93/2/1
f 96/2/1 92/2/1 91/2/1
f 96/2/1 93/2/1 92/2/1
f 97/2/1 93/2/1 96/2/1
f 98/2/1 93/2/1 97/2/1
f 99/2/1 96/2/1 95/2/1
f 99/2/1 97/2/1 96/2/1
f 100/2/1 97/2/1 99/2/1
f 101/2/1 99/2/1 95/2/1
f 102/2/1 99/2/1 101/2/1
f 105/2/1 104/2/1 103/2/1
f 106/2/1 104/2/1 105/2/1
f 109/4/1 108/4/1 107/4/1
f 110/4/1 108/4/1 109/4/1
f 111/3/1 110/3/1 109/3/1
f 112/3/1 110/3/1 111/3/1
f 113/4/2 114/4/2 115/4/2
f 115/4/2 114/4/2 116/4/2
f 115/3/2 116/3/2 117/3/2
f 117/3/2 116/3/2 118/3/2
f 119/2/2 120/2/2 121/2/2
f 121/2/2 120/2/2 122/2/2
f 123/1/2 124/1/2 126/1/2
f 125/1/2 126/1/2 127/1/2
f 126/1/2 124/1/2 128/1/2
f 127/1/2 126/1/2 128/1/2
f 129/2/2 130/2/2 131/2/2
f 129/2/2 131/2/2 133/2/2
f 131/2/2 132/2/2 133/2/2
f 133/2/2 132/2/2 136/2/2
f 136/2/2 132/2/2 137/2/2
f 137/2/2 132/2/2 138/2/2
f 134/2/2 135/2/2 139/2/2
f 135/2/2 136/2/2 139/2/2
f 136/2/2 137/2/2 139/2/2
f 139/2/2 137/2/2 140/2/2
f 134/2/2 139/2/2 141/2/2
f 141/2/2 139/2/2 142/2/2
f 134/2/2 141/2/2 143/2/2
f 143/2/2 141/2/2 144/2/2
f 134/2/2 143/2/2 146/2/2
f 146/2/2 143/2/2 147/2/2
f 147/2/2 143/2/2 148/2/2
f 145/2/2 146/2/2 150/2/2
f 146/2/2 147/2/2 150/2/2
f 150/2/2 147/2/2 151/2/2
f 151/2/2 147/2/2 152/2/2
f 149/2/2 150/2/2 153/2/2
f 150/2/2 151/2/2 153/2/2
f 153/2/2 151/2/2 154/2/2
f 149/2/2 153/2/2 155/2/2
f 155/2/2 153/2/2 156/2/2
f 157/4/2 158/4/2 159/4/2
f 159/4/2 158/4/2 160/4/2
f 161/3/2 162/3/2 166/3/2
f 166/3/2 162/3/2 167/3/2
f 163/3/2 164/3/2 168/3/2
f 168/3/2 164/3/2 169/3/2
f 165/3/2 166/3/2 171/3/2
f 171/3/2 166/3/2 172/3/2
f 169/3/2 170/3/2 173/3/2
f 173/3/2 170/3/2 174/3/2
f 175/3/2 176/3/2 179/3/2
f 179/3/2 176/3/2 180/3/2
f 177/3/2 178/3/2 183/3/2
f 183/3/2 178/3/2 184/3/2
f 180/3/2 181/3/2 185/3/2
f 185/3/2 181/3/2 186/3/2
f 182/3/2 183/3/2 187/3/2
f 187/3/2 183/3/2 188/3/2
f 189/3/2 190/3/2 192/3/2
f 192/3/2 190/3/2 193/3/2
f 191/3/2 192/3/2 196/3/2
f 196/3/2 192/3/2 197/3/2
f 193/3/2 194/3/2 198/3/2
f 198/3/2 194/3/2 199/3/2
f 195/3/2 196/3/2 201/3/2
f 201/3/2 196/3/2 202/3/2
f 199/3/2 200/3/2 205/3/2
f 205/3/2 200/3/2 206/3/2
f 202/3/2 203/3/2 207/3/2
f 207/3/2 203/3/2 208/3/2
f 204/3/2 205/3/2 209/3/2
f 209/3/2 205/3/2 210/3/2
f 208/3/2 209/3/2 211/3/2
f 211/3/2 209/3/2 212/3/2
f 213/3/2 214/3/2 216/3/2
f 216/3/2 214/3/2 217/3/2
f 215/3/2 216/3/2 219/3/2
f 217/3/2 218/3/2 219/3/2
f 216/3/2 217/3/2 219/3/2
f 219/3/2 218/3/2 220/3/2
f 220/3/2 218/3/2 221/3/2
f 221/3/2 218/3/2 222/3/2
f 220/3/2 221/3/2 223/3/2
f 223/3/2 221/3/2 224/3/2
f 227/1/3 226/1/3 225/1/3
f 228/1/3 226/1/3 227/1/3
f 231/4/3 230/4/3 229/4/3
f 232/4/3 230/4/3 231/4/3
f 233/4/3 231/4/3 229/4/3
f 234/3/3 232/3/3 231/3/3
f 234/4/3 231/4/3 233/4/3
f 235/3/3 232/3/3 234/3/3
f 238/1/3 237/1/3 236/1/3
f 239/1/3 237/1/3 238/1/3
f 243/4/3 241/4/3 240/4/3
f 243/3/3 242/3/3 241/3/3
f 244/3/3 242/3/3 243/3/3
f 245/4/3 243/4/3 240/4/3
f 245/4/3 244/4/3 243/4/3
f 246/4/3 244/4/3 245/4/3
f 250/3/3 248/3/3 247/3/3
f 251/3/3 248/3/3 250/3/3
f 253/3/3 250/3/3 249/3/3
f 253/3/3 252/3/3 251/3/3
f 253/3/3 251/3/3 250/3/3
f 254/3/3 252/3/3 253/3/3
f 255/3/3 252/3/3 254/3/3
f 256/3/3 253/3/3 249/3/3
f 258/3/3 252/3/3 255/3/3
f 259/3/3 257/3/3 256/3/3
f 259/3/3 258/3/3 257/3/3
f 259/3/3 256/3/3 249/3/3
f 260/3/3 258/3/3 259/3/3
f 261/3/3 259/3/3 249/3/3
f 262/3/3 258/3/3 260/3/3
f 263/3/3 258/3/3 262/3/3
f 263/3/3 262/3/3 261/3/3
f 264/3/3 258/3/3 263/3/3
f 265/3/3 252/3/3 258/3/3
f 265/3/3 258/3/3 264/3/3
f 266/3/3 252/3/3 265/3/3
f 267/3/3 263/3/3 261/3/3
f 268/3/3 252/3/3 266/3/3
f 269/3/3 267/3/3 261/3/3
f 269/3/3 268/3/3 267/3/3
f 269/3/3 261/3/3 249/3/3
f 270/3/3 268/3/3 269/3/3
f 271/3/3 252/3/3 268/3/3
f 271/3/3 268/3/3 270/3/3
f 272/3/3 252/3/3 271/3/3
f 273/3/3 271/3/3 270/3/3
f 274/3/3 271/3/3 273/3/3
f 278/3/3 276/3/3 275/3/3
f 279/3/3 276/3/3 278/3/3
f 282/3/3 278/3/3 277/3/3
f 283/3/3 278/3/3 282/3/3
f 284/3/3 280/3/3 279/3/3
f 285/3/3 280/3/3 284/3/3
f 287/3/3 282/3/3 281/3/3
f 288/3/3 282/3/3 287/3/3
f 291/3/3 286/3/3 285/3/3
f 292/3/3 286/3/3 291/3/3
f 293/3/3 289/3/3 288/3/3
f 294/3/3 289/3/3 293/3/3
f 295/3/3 291/3/3 290/3/3
f 296/3/3 291/3/3 295/3/3
f 297/3/3 295/3/3 294/3/3
f 298/3/3 295/3/3 297/3/3
f 304/3/3 300/3/3 299/3/3
f 305/3/3 300/3/3 304/3/3
f 306/3/3 302/3/3 301/3/3
f 307/3/3 302/3/3 306/3/3
f 309/3/3 304/3/3 303/3/3
f 310/3/3 304/3/3 309/3/3
f 311/3/3 308/3/3 307/3/3
f 312/3/3 308/3/3 311/3/3
f 317/3/3 314/3/3 313/3/3
f 318/3/3 314/3/3 317/3/3
f 321/3/3 316/3/3 315/3/3
f 322/3/3 316/3/3 321/3/3
f 323/3/3 319/3/3 318/3/3
f 324/3/3 319/3/3 323/3/3
f 325/3/3 321/3/3 320/3/3
f 326/3/3 321/3/3 325/3/3
f 329/2/3 328/2/3 327/2/3
f 330/2/3 328/2/3 329/2/3
f 333/2/3 332/2/3 331/2/3
f 334/2/3 332/2/3 333/2/3
f 337/2/3 336/2/3 335/2/3
f 338/2/3 336/2/3 337/2/3
f 341/2/3 340/2/3 339/2/3
f 342/2/3 340/2/3 341/2/3
f 343/2/4 344/2/4 345/2/4
f 345/2/4 344/2/4 346/2/4
f 347/2/4 348/2/4 349/2/4
f 349/2/4 348/2/4 350/2/4
f 351/2/4 352/2/4 353/2/4
f 353/2/4 352/2/4 354/2/4
f 355/2/4 356/2/4 357/2/4
f 357/2/4 356/2/4 358/2/4
f 359/2/4 360/2/4 361/2/4
f 361/2/4 360/2/4 362/2/4
f 363/3/4 364/3/4 368/3/4
f 368/3/4 364/3/4 369/3/4
f 365/3/4 366/3/4 370/3/4
f 370/3/4 366/3/4 371/3/4
f 367/3/4 368/3/4 373/3/4
f 373/3/4 368/3/4 374/3/4
f 371/3/4 372/3/4 375/3/4
f 375/3/4 372/3/4 376/3/4
f 377/2/4 378/2/4 379/2/4
f 379/2/4 378/2/4 380/2/4
f 381/3/4 382/3/4 385/3/4
f 385/3/4 382/3/4 386/3/4
f 383/3/4 384/3/4 389/3/4
f 389/3/4 384/3/4 390/3/4
f 386/3/4 387/3/4 391/3/4
f 391/3/4 387/3/4 392/3/4
f 388/3/4 389/3/4 393/3/4
f 393/3/4 389/3/4 394/3/4
f 395/3/4 396/3/4 398/3/4
f 398/3/4 396/3/4 399/3/4
f 397/3/4 398/3/4 402/3/4
f 402/3/4 398/3/4 403/3/4
f 399/3/4 400/3/4 404/3/4
f 404/3/4 400/3/4 405/3/4
f 405/3/4 406/3/4 407/3/4
f 405/3/4 407/3/4 408/3/4
f 401/3/4 402/3/4 409/3/4
f 409/3/4 402/3/4 410/3/4
f 405/3/4 408/3/4 413/3/4
f 413/3/4 408/3/4 414/3/4
f 410/3/4 411/3/4 415/3/4
f 415/3/4 411/3/4 416/3/4
f 412/3/4 413/3/4 417/3/4
f 417/3/4 413/3/4 418/3/4
f 416/3/4 417/3/4 419/3/4
f 419/3/4 417/3/4 420/3/4
f 421/3/4 422/3/4 424/3/4
f 424/3/4 422/3/4 425/3/4
f 423/3/4 424/3/4 427/3/4
f 425/3/4 426/3/4 427/3/4
f 424/3/4 425/3/4 427/3/4
f 427/3/4 426/3/4 428/3/4
f 423/3/4 427/3/4 429/3/4
f 423/3/4 429/3/4 431/3/4
f 429/3/4 430/3/4 431/3/4
f 431/3/4 430/3/4 432/3/4
f 432/3/4 430/3/4 433/3/4
f 433/3/4 430/3/4 434/3/4
f 432/3/4 433/3/4 435/3/4
f 435/3/4 433/3/4 436/3/4
f 437/2/4 438/2/4 441/2/4
f 441/2/4 438/2/4 442/2/4
f 437/2/4 441/2/4 443/2/4
f 437/2/4 443/2/4 445/2/4
f 443/2/4 444/2/4 445/2/4
f 445/2/4 444/2/4 446/2/4
f 439/2/4 440/2/4 447/2/4
f 447/2/4 440/2/4 448/2/4
f 449/2/4 450/2/4 452/2/4
f 451/2/4 452/2/4 453/2/4
f 452/2/4 450/2/4 454/2/4
f 453/2/4 452/2/4 454/2/4
f 454/2/4 450/2/4 455/2/4
f 455/2/4 450/2/4 456/2/4
f 460/3/5 458/3/5 457/3/5
f 461/3/5 458/3/5 460/3/5
f 463/3/5 460/3/5 459/3/5
f 463/3/5 462/3/5 461/3/5
f 463/3/5 461/3/5 460/3/5
f 464/3/5 462/3/5 463/3/5
f 465/3/5 462/3/5 464/3/5
f 466/3/5 462/3/5 465/3/5
f 467/3/5 465/3/5 464/3/5
f 468/3/5 465/3/5 467/3/5
f 472/3/5 470/3/5 469/3/5
f 473/3/5 470/3/5 472/3/5
f 476/3/5 472/3/5 471/3/5
f 477/3/5 472/3/5 476/3/5
f 478/3/5 474/3/5 473/3/5
f 479/3/5 474/3/5 478/3/5
f 481/3/5 476/3/5 475/3/5
f 482/3/5 476/3/5 481/3/5
f 485/3/5 480/3/5 479/3/5
f 486/3/5 480/3/5 485/3/5
f 487/3/5 483/3/5 482/3/5
f 488/3/5 483/3/5 487/3/5
f 489/3/5 485/3/5 484/3/5
f 490/3/5 485/3/5 489/3/5
f 491/3/5 489/3/5 488/3/5
f 492/3/5 489/3/5 491/3/5
f 498/3/5 494/3/5 493/3/5
f 499/3/5 494/3/5 498/3/5
f 500/3/5 496/3/5 495/3/5
f 501/3/5 496/3/5 500/3/5
f 503/3/5 498/3/5 497/3/5
f 504/3/5 498/3/5 503/3/5
f 505/3/5 502/3/5 501/3/5
f 506/3/5 502/3/5 505/3/5
f 511/3/5 508/3/5 507/3/5
f 512/3/5 508/3/5 511/3/5
f 515/3/5 510/3/5 509/3/5
f 516/3/5 510/3/5 515/3/5
f 517/3/5 513/3/5 512/3/5
f 518/3/5 513/3/5 517/3/5
f 519/3/5 515/3/5 514/3/5
f 520/3/5 515/3/5 519/3/5
f 523/1/5 522/1/5 521/1/5
f 524/1/5 522/1/5 523/1/5
f 527/1/5 526/1/5 525/1/5
f 528/1/5 526/1/5 527/1/5
f 531/2/5 530/2/5 529/2/5
f 532/2/5 530/2/5 531/2/5
f 535/2/5 534/2/5 533/2/5
f 536/2/5 534/2/5 535/2/5
f 541/4/5 538/4/5 537/4/5
f 542/4/5 538/4/5 541/4/5
f 543/4/5 540/4/5 539/4/5
f 544/4/5 540/4/5 543/4/5
f 549/2/5 546/2/5 545/2/5
f 550/2/5 546/2/5 549/2/5
f 551/2/5 548/2/5 547/2/5
f 552/2/5 548/2/5 551/2/5
f 555/2/5 554/2/5 553/2/5
f 556/2/5 554/2/5 555/2/5
f 559/2/5 558/2/5 557/2/5
f 560/2/5 558/2/5 559/2/5
f 563/2/5 562/2/5 561/2/5
f 564/2/5 562/2/5 563/2/5
f 565/1/6 566/1/6 567/1/6
f 567/1/6 566/1/6 568/1/6
f 569/4/6 570/4/6 575/4/6
f 570/3/6 571/3/6 576/3/6
f 575/4/6 570/4/6 576/4/6
f 576/3/6 571/3/6 577/3/6
f 572/3/6 573/3/6 578/3/6
f 573/4/6 574/4/6 579/4/6
f 578/3/6 573/3/6 579/3/6
f 579/4/6 574/4/6 580/4/6
f 581/3/6 582/3/6 586/3/6
f 586/3/6 582/3/6 587/3/6
f 583/3/6 584/3/6 588/3/6
f 588/3/6 584/3/6 589/3/6
f 585/3/6 586/3/6 591/3/6
f 591/3/6 586/3/6 592/3/6
f 589/3/6 590/3/6 593/3/6
f 593/3/6 590/3/6 594/3/6
f 595/3/6 596/3/6 599/3/6
f 599/3/6 596/3/6 600/3/6
f 597/3/6 598/3/6 603/3/6
f 603/3/6 598/3/6 604/3/6
f 600/3/6 601/3/6 605/3/6
f 605/3/6 601/3/6 606/3/6
f 602/3/6 603/3/6 607/3/6
f 607/3/6 603/3/6 608/3/6
f 609/3/6 610/3/6 612/3/6
f 612/3/6 610/3/6 613/3/6
f 611/3/6 612/3/6 616/3/6
f 616/3/6 612/3/6 617/3/6
f 613/3/6 614/3/6 618/3/6
f 618/3/6 614/3/6 619/3/6
f 615/3/6 616/3/6 621/3/6
f 621/3/6 616/3/6 622/3/6
f 619/3/6 620/3/6 625/3/6
f 625/3/6 620/3/6 626/3/6
f 622/3/6 623/3/6 627/3/6
f 627/3/6 623/3/6 628/3/6
f 624/3/6 625/3/6 629/3/6
f 629/3/6 625/3/6 630/3/6
f 628/3/6 629/3/6 631/3/6
f 631/3/6 629/3/6 632/3/6
f 632/3/6 629/3/6 633/3/6
f 633/3/6 629/3/6 634/3/6
f 635/3/6 636/3/6 638/3/6
f 638/3/6 636/3/6 639/3/6
f 637/3/6 638/3/6 641/3/6
f 639/3/6 640/3/6 641/3/6
f 638/3/6 639/3/6 641/3/6
f 641/3/6 640/3/6 642/3/6
f 637/3/6 641/3/6 643/3/6
f 643/3/6 641/3/6 644/3/6
f 642/3/6 640/3/6 645/3/6
f 645/3/6 640/3/6 646/3/6
f 644/3/6 641/3/6 647/3/6
f 647/3/6 641/3/6 648/3/6
f 642/3/6 645/3/6 649/3/6
f 649/3/6 645/3/6 650/3/6
f 651/2/6 652/2/6 653/2/6
f 653/2/6 652/2/6 654/2/6
f 655/2/6 656/2/6 657/2/6
f 657/2/6 656/2/6 658/2/6
f 659/2/6 660/2/6 661/2/6
f 661/2/6 660/2/6 662/2/6
f 663/2/6 664/2/6 665/2/6
f 665/2/6 664/2/6 666/2/6
f 667/2/6 668/2/6 669/2/6
f 669/2/6 668/2/6 670/2/6
f 671/2/6 672/2/6 673/2/6
f 673/2/6 672/2/6 674/2/6
f 675/2/6 676/2/6 677/2/6
f 677/2/6 676/2/6 678/2/6
f 679/2/6 680/2/6 681/2/6
f 681/2/6 680/2/6 682/2/6
