# MagicaVoxel @ Ephtracy

# group
g alien Love

# material
mtllib alien Love.mtl
usemtl palette

# normals
vn -1 0 0
vn 1 0 0
vn 0 0 1
vn 0 0 -1
vn 0 -1 0
vn 0 1 0

# texcoords
vt 0.841797 0.5
vt 0.958984 0.5
vt 0.966797 0.5
vt 0.978516 0.5
vt 0.994141 0.5

# verts
v -4 18 6
v -4 18 5
v -4 18 2
v -4 18 -2
v -4 22 6
v -4 22 5
v -4 22 2
v -4 22 -2
v -3 17 6
v -3 17 5
v -3 17 2
v -3 17 -2
v -3 18 6
v -3 18 5
v -3 18 2
v -3 18 -2
v -3 18 -4
v -3 22 6
v -3 22 5
v -3 22 2
v -3 22 -2
v -3 22 -4
v -3 23 6
v -3 23 5
v -3 23 2
v -3 23 -2
v -2 7 -5
v -2 7 -12
v -2 8 -5
v -2 8 -12
v -2 16 6
v -2 16 5
v -2 16 2
v -2 16 -2
v -2 17 6
v -2 17 5
v -2 17 2
v -2 17 -2
v -2 17 -4
v -2 18 5
v -2 18 2
v -2 18 -2
v -2 18 -4
v -2 18 -5
v -2 20 14
v -2 20 13
v -2 21 14
v -2 21 13
v -2 22 5
v -2 22 2
v -2 22 -2
v -2 22 -4
v -2 22 -5
v -2 23 6
v -2 23 5
v -2 23 2
v -2 23 -2
v -2 23 -4
v -2 24 6
v -2 24 5
v -2 24 2
v -2 24 -2
v -1 6 -7
v -1 6 -12
v -1 7 -7
v -1 7 -12
v -1 7 -13
v -1 8 -6
v -1 8 -9
v -1 8 -12
v -1 8 -13
v -1 9 -7
v -1 9 -9
v -1 9 -10
v -1 9 -11
v -1 10 -5
v -1 10 -6
v -1 10 -7
v -1 10 -10
v -1 10 -11
v -1 11 -6
v -1 11 -7
v -1 11 -11
v -1 11 -12
v -1 13 -4
v -1 13 -5
v -1 14 -3
v -1 14 -4
v -1 14 -5
v -1 14 -6
v -1 15 6
v -1 15 5
v -1 15 2
v -1 15 -2
v -1 15 -3
v -1 15 -4
v -1 15 -5
v -1 15 -9
v -1 15 -10
v -1 16 6
v -1 16 5
v -1 16 2
v -1 16 -2
v -1 16 -4
v -1 16 -5
v -1 16 -10
v -1 16 -11
v -1 17 7
v -1 17 6
v -1 17 5
v -1 17 2
v -1 17 -2
v -1 17 -4
v -1 17 -5
v -1 17 -6
v -1 17 -8
v -1 17 -9
v -1 18 8
v -1 18 7
v -1 18 -4
v -1 18 -5
v -1 18 -6
v -1 18 -8
v -1 18 -9
v -1 18 -10
v -1 19 14
v -1 19 13
v -1 19 -5
v -1 19 -8
v -1 19 -9
v -1 20 15
v -1 20 14
v -1 20 13
v -1 20 8
v -1 21 15
v -1 21 14
v -1 21 13
v -1 21 7
v -1 21 -7
v -1 21 -8
v -1 22 14
v -1 22 13
v -1 22 7
v -1 22 6
v -1 22 -4
v -1 22 -5
v -1 22 -7
v -1 23 -4
v -1 23 -5
v 1 17 5
v 1 17 4
v 1 18 5
v 1 18 4
v -1 17 5
v -1 17 4
v -1 18 5
v -1 18 4
v 1 6 -7
v 1 6 -12
v 1 7 -7
v 1 7 -12
v 1 7 -13
v 1 8 -6
v 1 8 -9
v 1 8 -12
v 1 8 -13
v 1 9 -7
v 1 9 -9
v 1 9 -10
v 1 9 -11
v 1 10 -5
v 1 10 -6
v 1 10 -7
v 1 10 -10
v 1 10 -11
v 1 11 -6
v 1 11 -7
v 1 11 -11
v 1 11 -12
v 1 13 -4
v 1 13 -5
v 1 14 -3
v 1 14 -4
v 1 14 -5
v 1 14 -6
v 1 15 6
v 1 15 5
v 1 15 2
v 1 15 -2
v 1 15 -3
v 1 15 -4
v 1 15 -5
v 1 15 -9
v 1 15 -10
v 1 16 6
v 1 16 5
v 1 16 2
v 1 16 -2
v 1 16 -4
v 1 16 -5
v 1 16 -10
v 1 16 -11
v 1 17 7
v 1 17 6
v 1 17 5
v 1 17 2
v 1 17 -2
v 1 17 -4
v 1 17 -5
v 1 17 -6
v 1 17 -8
v 1 17 -9
v 1 18 8
v 1 18 7
v 1 18 -4
v 1 18 -5
v 1 18 -6
v 1 18 -8
v 1 18 -9
v 1 18 -10
v 1 19 14
v 1 19 13
v 1 19 -5
v 1 19 -8
v 1 19 -9
v 1 20 15
v 1 20 14
v 1 20 13
v 1 20 8
v 1 21 15
v 1 21 14
v 1 21 13
v 1 21 7
v 1 21 -7
v 1 21 -8
v 1 22 14
v 1 22 13
v 1 22 7
v 1 22 6
v 1 22 -4
v 1 22 -5
v 1 22 -7
v 1 23 -4
v 1 23 -5
v 2 7 -5
v 2 7 -12
v 2 8 -5
v 2 8 -12
v 2 16 6
v 2 16 5
v 2 16 2
v 2 16 -2
v 2 17 6
v 2 17 5
v 2 17 2
v 2 17 -2
v 2 17 -4
v 2 18 5
v 2 18 2
v 2 18 -2
v 2 18 -4
v 2 18 -5
v 2 20 14
v 2 20 13
v 2 21 14
v 2 21 13
v 2 22 5
v 2 22 2
v 2 22 -2
v 2 22 -4
v 2 22 -5
v 2 23 6
v 2 23 5
v 2 23 2
v 2 23 -2
v 2 23 -4
v 2 24 6
v 2 24 5
v 2 24 2
v 2 24 -2
v 3 17 6
v 3 17 5
v 3 17 2
v 3 17 -2
v 3 18 6
v 3 18 5
v 3 18 2
v 3 18 -2
v 3 18 -4
v 3 22 6
v 3 22 5
v 3 22 2
v 3 22 -2
v 3 22 -4
v 3 23 6
v 3 23 5
v 3 23 2
v 3 23 -2
v 4 18 6
v 4 18 5
v 4 18 2
v 4 18 -2
v 4 22 6
v 4 22 5
v 4 22 2
v 4 22 -2
v -1 20 15
v -1 21 15
v 1 20 15
v 1 21 15
v -2 20 14
v -2 21 14
v -1 19 14
v -1 20 14
v -1 21 14
v -1 22 14
v 1 19 14
v 1 20 14
v 1 21 14
v 1 22 14
v 2 20 14
v 2 21 14
v -1 18 8
v -1 20 8
v 1 18 8
v 1 20 8
v -1 17 7
v -1 18 7
v -1 21 7
v -1 22 7
v 1 17 7
v 1 18 7
v 1 21 7
v 1 22 7
v -4 18 6
v -4 22 6
v -3 17 6
v -3 18 6
v -3 22 6
v -3 23 6
v -2 16 6
v -2 17 6
v -2 23 6
v -2 24 6
v -1 15 6
v -1 16 6
v -1 17 6
v -1 22 6
v 1 15 6
v 1 16 6
v 1 17 6
v 1 22 6
v 2 16 6
v 2 17 6
v 2 23 6
v 2 24 6
v 3 17 6
v 3 18 6
v 3 22 6
v 3 23 6
v 4 18 6
v 4 22 6
v -1 17 4
v -1 18 4
v 1 17 4
v 1 18 4
v -4 18 2
v -4 22 2
v -3 17 2
v -3 18 2
v -3 22 2
v -3 23 2
v -2 16 2
v -2 17 2
v -2 18 2
v -2 22 2
v -2 23 2
v -2 24 2
v -1 15 2
v -1 16 2
v -1 17 2
v 1 15 2
v 1 16 2
v 1 17 2
v 2 16 2
v 2 17 2
v 2 18 2
v 2 22 2
v 2 23 2
v 2 24 2
v 3 17 2
v 3 18 2
v 3 22 2
v 3 23 2
v 4 18 2
v 4 22 2
v -1 14 -3
v -1 15 -3
v 1 14 -3
v 1 15 -3
v -1 13 -4
v -1 14 -4
v 1 13 -4
v 1 14 -4
v -2 7 -5
v -2 8 -5
v -1 10 -5
v -1 13 -5
v 1 10 -5
v 1 13 -5
v 2 7 -5
v 2 8 -5
v -1 8 -6
v -1 10 -6
v 1 8 -6
v 1 10 -6
v -1 6 -7
v -1 7 -7
v 1 6 -7
v 1 7 -7
v -2 20 13
v -2 21 13
v -1 19 13
v -1 20 13
v -1 21 13
v -1 22 13
v 1 19 13
v 1 20 13
v 1 21 13
v 1 22 13
v 2 20 13
v 2 21 13
v -4 18 5
v -4 22 5
v -3 17 5
v -3 18 5
v -3 22 5
v -3 23 5
v -2 16 5
v -2 17 5
v -2 18 5
v -2 22 5
v -2 23 5
v -2 24 5
v -1 15 5
v -1 16 5
v -1 17 5
v -1 18 5
v 1 15 5
v 1 16 5
v 1 17 5
v 1 18 5
v 2 16 5
v 2 17 5
v 2 18 5
v 2 22 5
v 2 23 5
v 2 24 5
v 3 17 5
v 3 18 5
v 3 22 5
v 3 23 5
v 4 18 5
v 4 22 5
v -4 18 -2
v -4 22 -2
v -3 17 -2
v -3 18 -2
v -3 22 -2
v -3 23 -2
v -2 16 -2
v -2 17 -2
v -2 18 -2
v -2 22 -2
v -2 23 -2
v -2 24 -2
v -1 16 -2
v -1 17 -2
v 1 16 -2
v 1 17 -2
v 2 16 -2
v 2 17 -2
v 2 18 -2
v 2 22 -2
v 2 23 -2
v 2 24 -2
v 3 17 -2
v 3 18 -2
v 3 22 -2
v 3 23 -2
v 4 18 -2
v 4 22 -2
v -3 18 -4
v -3 22 -4
v -2 17 -4
v -2 18 -4
v -2 22 -4
v -2 23 -4
v -1 17 -4
v -1 18 -4
v -1 22 -4
v -1 23 -4
v 1 17 -4
v 1 18 -4
v 1 22 -4
v 1 23 -4
v 2 17 -4
v 2 18 -4
v 2 22 -4
v 2 23 -4
v 3 18 -4
v 3 22 -4
v -2 18 -5
v -2 22 -5
v -1 18 -5
v -1 19 -5
v -1 22 -5
v -1 23 -5
v 1 18 -5
v 1 19 -5
v 1 22 -5
v 1 23 -5
v 2 18 -5
v 2 22 -5
v -1 21 -7
v -1 22 -7
v 1 21 -7
v 1 22 -7
v -1 19 -8
v -1 21 -8
v 1 19 -8
v 1 21 -8
v -1 18 -9
v -1 19 -9
v 1 18 -9
v 1 19 -9
v -1 16 -10
v -1 18 -10
v 1 16 -10
v 1 18 -10
v -1 11 -11
v -1 16 -11
v 1 11 -11
v 1 16 -11
v -2 7 -12
v -2 8 -12
v -1 6 -12
v -1 7 -12
v -1 8 -12
v -1 11 -12
v 1 6 -12
v 1 7 -12
v 1 8 -12
v 1 11 -12
v 2 7 -12
v 2 8 -12
v -1 7 -13
v -1 8 -13
v 1 7 -13
v 1 8 -13
v -1 6 -7
v 1 6 -7
v -1 6 -12
v 1 6 -12
v -2 7 -5
v 2 7 -5
v -1 7 -7
v 1 7 -7
v -2 7 -12
v -1 7 -12
v 1 7 -12
v 2 7 -12
v -1 7 -13
v 1 7 -13
v -1 10 -5
v 1 10 -5
v -1 10 -6
v 1 10 -6
v -1 13 -4
v 1 13 -4
v -1 13 -5
v 1 13 -5
v -1 14 -3
v 1 14 -3
v -1 14 -4
v 1 14 -4
v -1 15 6
v 1 15 6
v -1 15 5
v 1 15 5
v -1 15 2
v 1 15 2
v -1 15 -2
v 1 15 -2
v -1 15 -3
v 1 15 -3
v -2 16 6
v -1 16 6
v 1 16 6
v 2 16 6
v -2 16 5
v -1 16 5
v 1 16 5
v 2 16 5
v -2 16 2
v -1 16 2
v 1 16 2
v 2 16 2
v -2 16 -2
v -1 16 -2
v 1 16 -2
v 2 16 -2
v -1 17 7
v 1 17 7
v -3 17 6
v -2 17 6
v -1 17 6
v 1 17 6
v 2 17 6
v 3 17 6
v -3 17 5
v -2 17 5
v -1 17 5
v 1 17 5
v 2 17 5
v 3 17 5
v -3 17 2
v -2 17 2
v -1 17 2
v 1 17 2
v 2 17 2
v 3 17 2
v -3 17 -2
v -2 17 -2
v -1 17 -2
v 1 17 -2
v 2 17 -2
v 3 17 -2
v -2 17 -4
v -1 17 -4
v 1 17 -4
v 2 17 -4
v -1 18 8
v 1 18 8
v -1 18 7
v 1 18 7
v -4 18 6
v -3 18 6
v 3 18 6
v 4 18 6
v -4 18 5
v -3 18 5
v -2 18 5
v -1 18 5
v 1 18 5
v 2 18 5
v 3 18 5
v 4 18 5
v -1 18 4
v 1 18 4
v -4 18 2
v -3 18 2
v -2 18 2
v 2 18 2
v 3 18 2
v 4 18 2
v -4 18 -2
v -3 18 -2
v -2 18 -2
v 2 18 -2
v 3 18 -2
v 4 18 -2
v -3 18 -4
v -2 18 -4
v -1 18 -4
v 1 18 -4
v 2 18 -4
v 3 18 -4
v -2 18 -5
v -1 18 -5
v 1 18 -5
v 2 18 -5
v -1 19 14
v 1 19 14
v -1 19 13
v 1 19 13
v -1 20 15
v 1 20 15
v -2 20 14
v -1 20 14
v 1 20 14
v 2 20 14
v -2 20 13
v -1 20 13
v 1 20 13
v 2 20 13
v -1 20 8
v 1 20 8
v -2 8 -5
v 2 8 -5
v -1 8 -6
v 1 8 -6
v -1 8 -9
v 1 8 -9
v -2 8 -12
v -1 8 -12
v 1 8 -12
v 2 8 -12
v -1 8 -13
v 1 8 -13
v -1 11 -11
v 1 11 -11
v -1 11 -12
v 1 11 -12
v -1 16 -10
v 1 16 -10
v -1 16 -11
v 1 16 -11
v -1 17 5
v 1 17 5
v -1 17 4
v 1 17 4
v -1 18 -9
v 1 18 -9
v -1 18 -10
v 1 18 -10
v -1 19 -8
v 1 19 -8
v -1 19 -9
v 1 19 -9
v -1 21 15
v 1 21 15
v -2 21 14
v -1 21 14
v 1 21 14
v 2 21 14
v -2 21 13
v -1 21 13
v 1 21 13
v 2 21 13
v -1 21 7
v 1 21 7
v -1 21 -7
v 1 21 -7
v -1 21 -8
v 1 21 -8
v -1 22 14
v 1 22 14
v -1 22 13
v 1 22 13
v -1 22 7
v 1 22 7
v -4 22 6
v -3 22 6
v -1 22 6
v 1 22 6
v 3 22 6
v 4 22 6
v -4 22 5
v -3 22 5
v -2 22 5
v 2 22 5
v 3 22 5
v 4 22 5
v -4 22 2
v -3 22 2
v -2 22 2
v 2 22 2
v 3 22 2
v 4 22 2
v -4 22 -2
v -3 22 -2
v -2 22 -2
v 2 22 -2
v 3 22 -2
v 4 22 -2
v -3 22 -4
v -2 22 -4
v -1 22 -4
v 1 22 -4
v 2 22 -4
v 3 22 -4
v -2 22 -5
v -1 22 -5
v 1 22 -5
v 2 22 -5
v -1 22 -7
v 1 22 -7
v -3 23 6
v -2 23 6
v 2 23 6
v 3 23 6
v -3 23 5
v -2 23 5
v 2 23 5
v 3 23 5
v -3 23 2
v -2 23 2
v 2 23 2
v 3 23 2
v -3 23 -2
v -2 23 -2
v 2 23 -2
v 3 23 -2
v -2 23 -4
v -1 23 -4
v 1 23 -4
v 2 23 -4
v -1 23 -5
v 1 23 -5
v -2 24 6
v 2 24 6
v -2 24 5
v 2 24 5
v -2 24 2
v 2 24 2
v -2 24 -2
v 2 24 -2

# faces
f 5/2/1 2/2/1 1/2/1
f 6/2/1 2/2/1 5/2/1
f 7/2/1 4/2/1 3/2/1
f 8/2/1 4/2/1 7/2/1
f 13/2/1 10/2/1 9/2/1
f 14/2/1 10/2/1 13/2/1
f 15/2/1 12/2/1 11/2/1
f 16/2/1 12/2/1 15/2/1
f 19/2/1 15/2/1 14/2/1
f 20/2/1 15/2/1 19/2/1
f 21/2/1 17/2/1 16/2/1
f 22/2/1 17/2/1 21/2/1
f 23/2/1 19/2/1 18/2/1
f 24/2/1 19/2/1 23/2/1
f 25/2/1 21/2/1 20/2/1
f 26/2/1 21/2/1 25/2/1
f 29/2/1 28/2/1 27/2/1
f 30/2/1 28/2/1 29/2/1
f 35/2/1 32/2/1 31/2/1
f 36/2/1 32/2/1 35/2/1
f 37/2/1 34/2/1 33/2/1
f 38/2/1 34/2/1 37/2/1
f 40/2/1 37/2/1 36/2/1
f 41/2/1 37/2/1 40/2/1
f 42/2/1 39/2/1 38/2/1
f 43/2/1 39/2/1 42/2/1
f 47/1/1 46/1/1 45/1/1
f 48/1/1 46/1/1 47/1/1
f 52/2/1 44/2/1 43/2/1
f 53/2/1 44/2/1 52/2/1
f 55/2/1 50/2/1 49/2/1
f 56/2/1 50/2/1 55/2/1
f 57/2/1 52/2/1 51/2/1
f 58/2/1 52/2/1 57/2/1
f 59/2/1 55/2/1 54/2/1
f 60/2/1 55/2/1 59/2/1
f 61/2/1 57/2/1 56/2/1
f 62/2/1 57/2/1 61/2/1
f 65/2/1 64/2/1 63/2/1
f 66/2/1 64/2/1 65/2/1
f 70/2/1 67/2/1 66/2/1
f 71/2/1 67/2/1 70/2/1
f 72/2/1 69/2/1 68/2/1
f 73/3/1 70/3/1 69/3/1
f 73/2/1 69/2/1 72/2/1
f 74/3/1 70/3/1 73/3/1
f 75/3/1 70/3/1 74/3/1
f 77/2/1 72/2/1 68/2/1
f 78/3/1 73/3/1 72/3/1
f 78/3/1 74/3/1 73/3/1
f 78/2/1 72/2/1 77/2/1
f 79/4/1 75/4/1 74/4/1
f 79/3/1 74/3/1 78/3/1
f 80/3/1 70/3/1 75/3/1
f 80/4/1 75/4/1 79/4/1
f 81/3/1 77/3/1 76/3/1
f 81/3/1 78/3/1 77/3/1
f 82/4/1 79/4/1 78/4/1
f 82/3/1 78/3/1 81/3/1
f 83/3/1 70/3/1 80/3/1
f 83/3/1 80/3/1 79/3/1
f 84/3/1 70/3/1 83/3/1
f 86/3/1 81/3/1 76/3/1
f 88/3/1 86/3/1 85/3/1
f 89/3/1 81/3/1 86/3/1
f 89/3/1 86/3/1 88/3/1
f 90/4/1 82/4/1 81/4/1
f 90/3/1 81/3/1 89/3/1
f 95/3/1 89/3/1 88/3/1
f 95/3/1 88/3/1 87/3/1
f 96/3/1 89/3/1 95/3/1
f 97/4/1 90/4/1 89/4/1
f 97/3/1 89/3/1 96/3/1
f 98/4/1 79/4/1 82/4/1
f 98/4/1 90/4/1 97/4/1
f 98/4/1 82/4/1 90/4/1
f 99/3/1 83/3/1 79/3/1
f 99/4/1 79/4/1 98/4/1
f 100/2/1 92/2/1 91/2/1
f 101/2/1 92/2/1 100/2/1
f 102/2/1 94/2/1 93/2/1
f 103/3/1 96/3/1 95/3/1
f 103/3/1 95/3/1 94/3/1
f 103/2/1 94/2/1 102/2/1
f 104/4/1 97/4/1 96/4/1
f 104/3/1 96/3/1 103/3/1
f 104/4/1 98/4/1 97/4/1
f 105/4/1 98/4/1 104/4/1
f 106/3/1 83/3/1 99/3/1
f 106/3/1 99/3/1 98/3/1
f 107/3/1 83/3/1 106/3/1
f 110/2/1 102/2/1 101/2/1
f 111/2/1 102/2/1 110/2/1
f 112/3/1 105/3/1 104/3/1
f 112/3/1 104/3/1 103/3/1
f 113/3/1 105/3/1 112/3/1
f 114/4/1 98/4/1 105/4/1
f 114/3/1 105/3/1 113/3/1
f 115/4/1 98/4/1 114/4/1
f 116/4/1 98/4/1 115/4/1
f 117/3/1 106/3/1 98/3/1
f 117/4/1 98/4/1 116/4/1
f 119/5/1 109/5/1 108/5/1
f 120/3/1 115/3/1 114/3/1
f 120/3/1 114/3/1 113/3/1
f 121/3/1 115/3/1 120/3/1
f 122/4/1 116/4/1 115/4/1
f 122/3/1 115/3/1 121/3/1
f 123/3/1 117/3/1 116/3/1
f 123/4/1 116/4/1 122/4/1
f 124/3/1 106/3/1 117/3/1
f 124/3/1 117/3/1 123/3/1
f 125/3/1 106/3/1 124/3/1
f 128/3/1 123/3/1 122/3/1
f 128/3/1 122/3/1 121/3/1
f 128/3/1 124/3/1 123/3/1
f 129/3/1 124/3/1 128/3/1
f 130/3/1 124/3/1 129/3/1
f 132/1/1 127/1/1 126/1/1
f 133/1/1 127/1/1 132/1/1
f 134/5/1 119/5/1 118/5/1
f 135/1/1 132/1/1 131/1/1
f 136/1/1 132/1/1 135/1/1
f 137/5/1 134/5/1 133/5/1
f 138/5/1 109/5/1 119/5/1
f 138/5/1 119/5/1 134/5/1
f 138/5/1 134/5/1 137/5/1
f 139/2/1 129/2/1 128/2/1
f 140/2/1 129/2/1 139/2/1
f 141/1/1 137/1/1 136/1/1
f 142/1/1 137/1/1 141/1/1
f 143/5/1 109/5/1 138/5/1
f 144/5/1 109/5/1 143/5/1
f 146/2/1 139/2/1 128/2/1
f 147/2/1 139/2/1 146/2/1
f 148/2/1 146/2/1 145/2/1
f 149/2/1 146/2/1 148/2/1
f 152/2/1 151/2/1 150/2/1
f 153/2/1 151/2/1 152/2/1
f 154/2/2 155/2/2 156/2/2
f 156/2/2 155/2/2 157/2/2
f 158/2/2 159/2/2 160/2/2
f 160/2/2 159/2/2 161/2/2
f 161/2/2 162/2/2 165/2/2
f 165/2/2 162/2/2 166/2/2
f 163/2/2 164/2/2 167/2/2
f 164/3/2 165/3/2 168/3/2
f 167/2/2 164/2/2 168/2/2
f 168/3/2 165/3/2 169/3/2
f 169/3/2 165/3/2 170/3/2
f 163/2/2 167/2/2 172/2/2
f 167/3/2 168/3/2 173/3/2
f 168/3/2 169/3/2 173/3/2
f 172/2/2 167/2/2 173/2/2
f 169/4/2 170/4/2 174/4/2
f 173/3/2 169/3/2 174/3/2
f 170/3/2 165/3/2 175/3/2
f 174/4/2 170/4/2 175/4/2
f 171/3/2 172/3/2 176/3/2
f 172/3/2 173/3/2 176/3/2
f 173/4/2 174/4/2 177/4/2
f 176/3/2 173/3/2 177/3/2
f 175/3/2 165/3/2 178/3/2
f 174/3/2 175/3/2 178/3/2
f 178/3/2 165/3/2 179/3/2
f 171/3/2 176/3/2 181/3/2
f 180/3/2 181/3/2 183/3/2
f 181/3/2 176/3/2 184/3/2
f 183/3/2 181/3/2 184/3/2
f 176/4/2 177/4/2 185/4/2
f 184/3/2 176/3/2 185/3/2
f 183/3/2 184/3/2 190/3/2
f 182/3/2 183/3/2 190/3/2
f 190/3/2 184/3/2 191/3/2
f 184/4/2 185/4/2 192/4/2
f 191/3/2 184/3/2 192/3/2
f 177/4/2 174/4/2 193/4/2
f 192/4/2 185/4/2 193/4/2
f 185/4/2 177/4/2 193/4/2
f 174/3/2 178/3/2 194/3/2
f 193/4/2 174/4/2 194/4/2
f 186/2/2 187/2/2 195/2/2
f 195/2/2 187/2/2 196/2/2
f 188/2/2 189/2/2 197/2/2
f 190/3/2 191/3/2 198/3/2
f 189/3/2 190/3/2 198/3/2
f 197/2/2 189/2/2 198/2/2
f 191/4/2 192/4/2 199/4/2
f 198/3/2 191/3/2 199/3/2
f 192/4/2 193/4/2 199/4/2
f 199/4/2 193/4/2 200/4/2
f 194/3/2 178/3/2 201/3/2
f 193/3/2 194/3/2 201/3/2
f 201/3/2 178/3/2 202/3/2
f 196/2/2 197/2/2 205/2/2
f 205/2/2 197/2/2 206/2/2
f 199/3/2 200/3/2 207/3/2
f 198/3/2 199/3/2 207/3/2
f 207/3/2 200/3/2 208/3/2
f 200/4/2 193/4/2 209/4/2
f 208/3/2 200/3/2 209/3/2
f 209/4/2 193/4/2 210/4/2
f 210/4/2 193/4/2 211/4/2
f 193/3/2 201/3/2 212/3/2
f 211/4/2 193/4/2 212/4/2
f 203/5/2 204/5/2 214/5/2
f 209/3/2 210/3/2 215/3/2
f 208/3/2 209/3/2 215/3/2
f 215/3/2 210/3/2 216/3/2
f 210/4/2 211/4/2 217/4/2
f 216/3/2 210/3/2 217/3/2
f 211/3/2 212/3/2 218/3/2
f 217/4/2 211/4/2 218/4/2
f 212/3/2 201/3/2 219/3/2
f 218/3/2 212/3/2 219/3/2
f 219/3/2 201/3/2 220/3/2
f 217/3/2 218/3/2 223/3/2
f 216/3/2 217/3/2 223/3/2
f 218/3/2 219/3/2 223/3/2
f 223/3/2 219/3/2 224/3/2
f 224/3/2 219/3/2 225/3/2
f 221/1/2 222/1/2 227/1/2
f 227/1/2 222/1/2 228/1/2
f 213/5/2 214/5/2 229/5/2
f 226/1/2 227/1/2 230/1/2
f 230/1/2 227/1/2 231/1/2
f 228/5/2 229/5/2 232/5/2
f 214/5/2 204/5/2 233/5/2
f 229/5/2 214/5/2 233/5/2
f 232/5/2 229/5/2 233/5/2
f 223/2/2 224/2/2 234/2/2
f 234/2/2 224/2/2 235/2/2
f 231/1/2 232/1/2 236/1/2
f 236/1/2 232/1/2 237/1/2
f 233/5/2 204/5/2 238/5/2
f 238/5/2 204/5/2 239/5/2
f 223/2/2 234/2/2 241/2/2
f 241/2/2 234/2/2 242/2/2
f 240/2/2 241/2/2 243/2/2
f 243/2/2 241/2/2 244/2/2
f 245/2/2 246/2/2 247/2/2
f 247/2/2 246/2/2 248/2/2
f 249/2/2 250/2/2 253/2/2
f 253/2/2 250/2/2 254/2/2
f 251/2/2 252/2/2 255/2/2
f 255/2/2 252/2/2 256/2/2
f 254/2/2 255/2/2 258/2/2
f 258/2/2 255/2/2 259/2/2
f 256/2/2 257/2/2 260/2/2
f 260/2/2 257/2/2 261/2/2
f 263/1/2 264/1/2 265/1/2
f 265/1/2 264/1/2 266/1/2
f 261/2/2 262/2/2 270/2/2
f 270/2/2 262/2/2 271/2/2
f 267/2/2 268/2/2 273/2/2
f 273/2/2 268/2/2 274/2/2
f 269/2/2 270/2/2 275/2/2
f 275/2/2 270/2/2 276/2/2
f 272/2/2 273/2/2 277/2/2
f 277/2/2 273/2/2 278/2/2
f 274/2/2 275/2/2 279/2/2
f 279/2/2 275/2/2 280/2/2
f 281/2/2 282/2/2 285/2/2
f 285/2/2 282/2/2 286/2/2
f 283/2/2 284/2/2 287/2/2
f 287/2/2 284/2/2 288/2/2
f 286/2/2 287/2/2 291/2/2
f 291/2/2 287/2/2 292/2/2
f 288/2/2 289/2/2 293/2/2
f 293/2/2 289/2/2 294/2/2
f 290/2/2 291/2/2 295/2/2
f 295/2/2 291/2/2 296/2/2
f 292/2/2 293/2/2 297/2/2
f 297/2/2 293/2/2 298/2/2
f 299/2/2 300/2/2 303/2/2
f 303/2/2 300/2/2 304/2/2
f 301/2/2 302/2/2 305/2/2
f 305/2/2 302/2/2 306/2/2
f 309/1/3 308/1/3 307/1/3
f 310/1/3 308/1/3 309/1/3
f 314/1/3 312/1/3 311/1/3
f 315/1/3 312/1/3 314/1/3
f 317/1/3 314/1/3 313/1/3
f 318/1/3 314/1/3 317/1/3
f 319/1/3 316/1/3 315/1/3
f 320/1/3 316/1/3 319/1/3
f 321/1/3 319/1/3 318/1/3
f 322/1/3 319/1/3 321/1/3
f 325/5/3 324/5/3 323/5/3
f 326/5/3 324/5/3 325/5/3
f 331/5/3 328/5/3 327/5/3
f 332/5/3 328/5/3 331/5/3
f 333/5/3 330/5/3 329/5/3
f 334/5/3 330/5/3 333/5/3
f 338/2/3 336/2/3 335/2/3
f 339/2/3 336/2/3 338/2/3
f 342/2/3 338/2/3 337/2/3
f 342/2/3 340/2/3 339/2/3
f 342/2/3 339/2/3 338/2/3
f 343/2/3 340/2/3 342/2/3
f 346/2/3 342/2/3 341/2/3
f 346/2/3 344/2/3 343/2/3
f 346/2/3 343/2/3 342/2/3
f 347/2/3 344/2/3 346/2/3
f 348/2/3 344/2/3 347/2/3
f 349/2/3 346/2/3 345/2/3
f 349/2/3 347/2/3 346/2/3
f 350/2/3 347/2/3 349/2/3
f 351/2/3 347/2/3 350/2/3
f 352/2/3 344/2/3 348/2/3
f 353/2/3 351/2/3 350/2/3
f 353/2/3 352/2/3 351/2/3
f 354/2/3 352/2/3 353/2/3
f 355/2/3 344/2/3 352/2/3
f 355/2/3 352/2/3 354/2/3
f 356/2/3 344/2/3 355/2/3
f 357/2/3 355/2/3 354/2/3
f 358/2/3 355/2/3 357/2/3
f 359/2/3 355/2/3 358/2/3
f 360/2/3 355/2/3 359/2/3
f 361/2/3 359/2/3 358/2/3
f 362/2/3 359/2/3 361/2/3
f 365/2/3 364/2/3 363/2/3
f 366/2/3 364/2/3 365/2/3
f 370/2/3 368/2/3 367/2/3
f 371/2/3 368/2/3 370/2/3
f 374/2/3 370/2/3 369/2/3
f 375/2/3 370/2/3 374/2/3
f 376/2/3 372/2/3 371/2/3
f 377/2/3 372/2/3 376/2/3
f 380/2/3 374/2/3 373/2/3
f 381/2/3 374/2/3 380/2/3
f 382/2/3 380/2/3 379/2/3
f 383/2/3 380/2/3 382/2/3
f 385/2/3 384/2/3 383/2/3
f 386/2/3 384/2/3 385/2/3
f 389/2/3 378/2/3 377/2/3
f 390/2/3 378/2/3 389/2/3
f 391/2/3 387/2/3 386/2/3
f 392/2/3 387/2/3 391/2/3
f 393/2/3 389/2/3 388/2/3
f 394/2/3 389/2/3 393/2/3
f 395/2/3 393/2/3 392/2/3
f 396/2/3 393/2/3 395/2/3
f 399/3/3 398/3/3 397/3/3
f 400/3/3 398/3/3 399/3/3
f 403/3/3 402/3/3 401/3/3
f 404/3/3 402/3/3 403/3/3
f 409/3/3 408/3/3 407/3/3
f 410/3/3 408/3/3 409/3/3
f 411/2/3 406/2/3 405/2/3
f 412/2/3 406/2/3 411/2/3
f 415/2/3 414/2/3 413/2/3
f 416/2/3 414/2/3 415/2/3
f 419/2/3 418/2/3 417/2/3
f 420/2/3 418/2/3 419/2/3
f 421/1/4 422/1/4 424/1/4
f 424/1/4 422/1/4 425/1/4
f 423/1/4 424/1/4 427/1/4
f 427/1/4 424/1/4 428/1/4
f 425/1/4 426/1/4 429/1/4
f 429/1/4 426/1/4 430/1/4
f 428/1/4 429/1/4 431/1/4
f 431/1/4 429/1/4 432/1/4
f 433/2/4 434/2/4 436/2/4
f 436/2/4 434/2/4 437/2/4
f 435/2/4 436/2/4 440/2/4
f 440/2/4 436/2/4 441/2/4
f 437/2/4 438/2/4 442/2/4
f 442/2/4 438/2/4 443/2/4
f 439/2/4 440/2/4 446/2/4
f 446/2/4 440/2/4 447/2/4
f 445/2/4 446/2/4 449/2/4
f 449/2/4 446/2/4 450/2/4
f 447/2/4 448/2/4 451/2/4
f 451/2/4 448/2/4 452/2/4
f 450/2/4 451/2/4 453/2/4
f 453/2/4 451/2/4 454/2/4
f 443/2/4 444/2/4 457/2/4
f 457/2/4 444/2/4 458/2/4
f 454/2/4 455/2/4 459/2/4
f 459/2/4 455/2/4 460/2/4
f 456/2/4 457/2/4 461/2/4
f 461/2/4 457/2/4 462/2/4
f 460/2/4 461/2/4 463/2/4
f 463/2/4 461/2/4 464/2/4
f 465/2/4 466/2/4 468/2/4
f 468/2/4 466/2/4 469/2/4
f 467/2/4 468/2/4 472/2/4
f 472/2/4 468/2/4 473/2/4
f 469/2/4 470/2/4 474/2/4
f 474/2/4 470/2/4 475/2/4
f 471/2/4 472/2/4 477/2/4
f 477/2/4 472/2/4 478/2/4
f 479/2/4 480/2/4 481/2/4
f 481/2/4 480/2/4 482/2/4
f 475/2/4 476/2/4 485/2/4
f 485/2/4 476/2/4 486/2/4
f 482/2/4 483/2/4 487/2/4
f 487/2/4 483/2/4 488/2/4
f 484/2/4 485/2/4 489/2/4
f 489/2/4 485/2/4 490/2/4
f 488/2/4 489/2/4 491/2/4
f 491/2/4 489/2/4 492/2/4
f 493/2/4 494/2/4 496/2/4
f 496/2/4 494/2/4 497/2/4
f 495/2/4 496/2/4 499/2/4
f 499/2/4 496/2/4 500/2/4
f 497/2/4 498/2/4 501/2/4
f 501/2/4 498/2/4 502/2/4
f 503/2/4 504/2/4 507/2/4
f 507/2/4 504/2/4 508/2/4
f 505/2/4 506/2/4 509/2/4
f 509/2/4 506/2/4 510/2/4
f 508/2/4 509/2/4 511/2/4
f 511/2/4 509/2/4 512/2/4
f 513/2/4 514/2/4 515/2/4
f 515/2/4 514/2/4 516/2/4
f 516/2/4 514/2/4 517/2/4
f 517/2/4 518/2/4 521/2/4
f 521/2/4 518/2/4 522/2/4
f 519/2/4 520/2/4 523/2/4
f 520/2/4 521/2/4 523/2/4
f 523/2/4 521/2/4 524/2/4
f 525/2/4 526/2/4 527/2/4
f 527/2/4 526/2/4 528/2/4
f 529/2/4 530/2/4 531/2/4
f 531/2/4 530/2/4 532/2/4
f 533/3/4 534/3/4 535/3/4
f 535/3/4 534/3/4 536/3/4
f 537/3/4 538/3/4 539/3/4
f 539/3/4 538/3/4 540/3/4
f 541/3/4 542/3/4 543/3/4
f 543/3/4 542/3/4 544/3/4
f 545/2/4 546/2/4 548/2/4
f 548/2/4 546/2/4 549/2/4
f 547/2/4 548/2/4 551/2/4
f 551/2/4 548/2/4 552/2/4
f 549/3/4 550/3/4 553/3/4
f 553/3/4 550/3/4 554/3/4
f 552/2/4 553/2/4 555/2/4
f 555/2/4 553/2/4 556/2/4
f 557/2/4 558/2/4 559/2/4
f 559/2/4 558/2/4 560/2/4
f 563/2/5 562/2/5 561/2/5
f 564/2/5 562/2/5 563/2/5
f 567/2/5 566/2/5 565/2/5
f 568/2/5 566/2/5 567/2/5
f 569/2/5 567/2/5 565/2/5
f 570/2/5 567/2/5 569/2/5
f 571/2/5 566/2/5 568/2/5
f 572/2/5 566/2/5 571/2/5
f 573/2/5 571/2/5 570/2/5
f 574/2/5 571/2/5 573/2/5
f 577/3/5 576/3/5 575/3/5
f 578/3/5 576/3/5 577/3/5
f 581/3/5 580/3/5 579/3/5
f 582/3/5 580/3/5 581/3/5
f 585/3/5 584/3/5 583/3/5
f 586/3/5 584/3/5 585/3/5
f 589/2/5 588/2/5 587/2/5
f 590/2/5 588/2/5 589/2/5
f 593/2/5 592/2/5 591/2/5
f 594/2/5 592/2/5 593/2/5
f 595/3/5 594/3/5 593/3/5
f 596/3/5 594/3/5 595/3/5
f 601/2/5 598/2/5 597/2/5
f 602/2/5 598/2/5 601/2/5
f 603/2/5 600/2/5 599/2/5
f 604/2/5 600/2/5 603/2/5
f 606/2/5 603/2/5 602/2/5
f 607/2/5 603/2/5 606/2/5
f 609/2/5 606/2/5 605/2/5
f 610/2/5 606/2/5 609/2/5
f 611/2/5 608/2/5 607/2/5
f 612/2/5 608/2/5 611/2/5
f 617/5/5 614/5/5 613/5/5
f 618/5/5 614/5/5 617/5/5
f 621/2/5 616/2/5 615/2/5
f 622/2/5 616/2/5 621/2/5
f 625/2/5 620/2/5 619/2/5
f 626/2/5 620/2/5 625/2/5
f 628/2/5 623/2/5 622/2/5
f 629/2/5 623/2/5 628/2/5
f 630/2/5 625/2/5 624/2/5
f 631/2/5 625/2/5 630/2/5
f 633/2/5 628/2/5 627/2/5
f 634/2/5 628/2/5 633/2/5
f 637/2/5 632/2/5 631/2/5
f 638/2/5 632/2/5 637/2/5
f 639/2/5 635/2/5 634/2/5
f 640/2/5 635/2/5 639/2/5
f 641/2/5 637/2/5 636/2/5
f 642/2/5 637/2/5 641/2/5
f 645/5/5 644/5/5 643/5/5
f 646/5/5 644/5/5 645/5/5
f 651/2/5 648/2/5 647/2/5
f 652/2/5 648/2/5 651/2/5
f 657/2/5 650/2/5 649/2/5
f 658/2/5 650/2/5 657/2/5
f 659/2/5 655/2/5 654/2/5
f 660/2/5 655/2/5 659/2/5
f 662/2/5 653/2/5 652/2/5
f 663/2/5 653/2/5 662/2/5
f 664/2/5 657/2/5 656/2/5
f 665/2/5 657/2/5 664/2/5
f 667/2/5 662/2/5 661/2/5
f 668/2/5 662/2/5 667/2/5
f 671/2/5 666/2/5 665/2/5
f 672/2/5 666/2/5 671/2/5
f 673/2/5 669/2/5 668/2/5
f 674/2/5 669/2/5 673/2/5
f 677/2/5 671/2/5 670/2/5
f 678/2/5 671/2/5 677/2/5
f 679/2/5 675/2/5 674/2/5
f 680/2/5 675/2/5 679/2/5
f 681/2/5 677/2/5 676/2/5
f 682/2/5 677/2/5 681/2/5
f 685/1/5 684/1/5 683/1/5
f 686/1/5 684/1/5 685/1/5
f 690/1/5 688/1/5 687/1/5
f 691/1/5 688/1/5 690/1/5
f 693/1/5 690/1/5 689/1/5
f 694/1/5 690/1/5 693/1/5
f 695/1/5 692/1/5 691/1/5
f 696/1/5 692/1/5 695/1/5
f 697/5/5 695/5/5 694/5/5
f 698/5/5 695/5/5 697/5/5
f 699/2/6 700/2/6 701/2/6
f 701/2/6 700/2/6 702/2/6
f 699/2/6 701/2/6 703/2/6
f 702/2/6 700/2/6 704/2/6
f 699/2/6 703/2/6 705/2/6
f 705/2/6 703/2/6 706/2/6
f 704/2/6 700/2/6 707/2/6
f 707/2/6 700/2/6 708/2/6
f 706/2/6 707/2/6 709/2/6
f 709/2/6 707/2/6 710/2/6
f 711/3/6 712/3/6 713/3/6
f 713/3/6 712/3/6 714/3/6
f 715/3/6 716/3/6 717/3/6
f 717/3/6 716/3/6 718/3/6
f 719/2/6 720/2/6 721/2/6
f 721/2/6 720/2/6 722/2/6
f 723/3/6 724/3/6 725/3/6
f 725/3/6 724/3/6 726/3/6
f 727/3/6 728/3/6 729/3/6
f 729/3/6 728/3/6 730/3/6
f 731/1/6 732/1/6 734/1/6
f 734/1/6 732/1/6 735/1/6
f 733/1/6 734/1/6 737/1/6
f 737/1/6 734/1/6 738/1/6
f 735/1/6 736/1/6 739/1/6
f 739/1/6 736/1/6 740/1/6
f 738/5/6 739/5/6 741/5/6
f 741/5/6 739/5/6 742/5/6
f 743/2/6 744/2/6 745/2/6
f 745/2/6 744/2/6 746/2/6
f 747/1/6 748/1/6 749/1/6
f 749/1/6 748/1/6 750/1/6
f 751/5/6 752/5/6 755/5/6
f 755/5/6 752/5/6 756/5/6
f 753/2/6 754/2/6 759/2/6
f 759/2/6 754/2/6 760/2/6
f 757/2/6 758/2/6 763/2/6
f 763/2/6 758/2/6 764/2/6
f 760/2/6 761/2/6 766/2/6
f 766/2/6 761/2/6 767/2/6
f 762/2/6 763/2/6 768/2/6
f 768/2/6 763/2/6 769/2/6
f 765/2/6 766/2/6 771/2/6
f 771/2/6 766/2/6 772/2/6
f 769/2/6 770/2/6 775/2/6
f 775/2/6 770/2/6 776/2/6
f 772/2/6 773/2/6 777/2/6
f 777/2/6 773/2/6 778/2/6
f 774/2/6 775/2/6 781/2/6
f 781/2/6 775/2/6 782/2/6
f 778/2/6 779/2/6 783/2/6
f 783/2/6 779/2/6 784/2/6
f 780/2/6 781/2/6 785/2/6
f 785/2/6 781/2/6 786/2/6
f 784/2/6 785/2/6 787/2/6
f 787/2/6 785/2/6 788/2/6
f 789/2/6 790/2/6 793/2/6
f 793/2/6 790/2/6 794/2/6
f 791/2/6 792/2/6 795/2/6
f 795/2/6 792/2/6 796/2/6
f 794/2/6 795/2/6 798/2/6
f 798/2/6 795/2/6 799/2/6
f 797/2/6 798/2/6 801/2/6
f 801/2/6 798/2/6 802/2/6
f 799/2/6 800/2/6 803/2/6
f 803/2/6 800/2/6 804/2/6
f 802/2/6 803/2/6 805/2/6
f 805/2/6 803/2/6 806/2/6
f 806/2/6 803/2/6 807/2/6
f 807/2/6 803/2/6 808/2/6
f 806/2/6 807/2/6 809/2/6
f 809/2/6 807/2/6 810/2/6
f 811/2/6 812/2/6 813/2/6
f 813/2/6 812/2/6 814/2/6
f 815/2/6 816/2/6 817/2/6
f 817/2/6 816/2/6 818/2/6
